# xmcd CD database file
#
# Track frame offsets:
#	150
#	20069
#	43487
#	61967
#	77773
#	106749
#	129364
#	149132
#	181766
#	195594
#	225094
#	245844
#	275187
#
# Disc length: 3940 seconds
#
# Revision: 0
# Processed by: cddbd v1.5.2PL0 Copyright (c) Steve Scherf et al.
# Submitted via: CDex 1.51
#
DISCID=bb0f620d
DTITLE=VANCE KELLY - His Backstreet Blues Band - Chicago Blues Session Volume 70-Bluebird
DYEAR=2008
DGENRE=Blues
TTITLE0=I Stay Mad
TTITLE1=Ain't Gonna Worry About Tomorrow
TTITLE2=I Wish He Didn't Trust Me So Much
TTITLE3=Bump And Grind
TTITLE4=Little Bluebird
TTITLE5=My Baby Is Fine
TTITLE6=Someone Else Is Steppin' In
TTITLE7=Nobody's Sleeping In My Bed
TTITLE8=Ain't Doin' Too Bad
TTITLE9=Doing My Own Thing  - I Can't Get NextTo You  - I'm A Bluesman
TTITLE10=Soft-Hearted Woman
TTITLE11=Stormy Monday Blues  - Take Off Your Shoes
TTITLE12=Driving Wheel
EXTD=YEAR: 2008
EXTT0=
EXTT1=
EXTT2=
EXTT3=
EXTT4=
EXTT5=
EXTT6=
EXTT7=
EXTT8=
EXTT9=
EXTT10=
EXTT11=
EXTT12=
PLAYORDER=
